<?xml version="1.0" encoding="UTF-8" standalone="no"?>
<!-- Created with Inkscape (http://www.inkscape.org/) -->

<svg
   xmlns:dc="http://purl.org/dc/elements/1.1/"
   xmlns:cc="http://creativecommons.org/ns#"
   xmlns:rdf="http://www.w3.org/1999/02/22-rdf-syntax-ns#"
   xmlns:svg="http://www.w3.org/2000/svg"
   xmlns="http://www.w3.org/2000/svg"
   xmlns:sodipodi="http://sodipodi.sourceforge.net/DTD/sodipodi-0.dtd"
   xmlns:inkscape="http://www.inkscape.org/namespaces/inkscape"
   width="126.98946mm"
   height="126.9906mm"
   viewBox="0 0 126.98946 126.9906"
   version="1.1"
   id="svg865"
   inkscape:version="0.92.4 (5da689c313, 2019-01-14)"
   sodipodi:docname="8_10.svg">
  <defs
     id="defs859" />
  <sodipodi:namedview
     id="base"
     pagecolor="#ffffff"
     bordercolor="#666666"
     borderopacity="1.0"
     inkscape:pageopacity="0.0"
     inkscape:pageshadow="2"
     inkscape:zoom="0.49497475"
     inkscape:cx="30.122306"
     inkscape:cy="27.331232"
     inkscape:document-units="mm"
     inkscape:current-layer="layer1"
     showgrid="false"
     fit-margin-top="0"
     fit-margin-left="0"
     fit-margin-right="0"
     fit-margin-bottom="0"
     inkscape:window-width="1920"
     inkscape:window-height="1001"
     inkscape:window-x="-9"
     inkscape:window-y="-9"
     inkscape:window-maximized="1" />
  <metadata
     id="metadata862">
    <rdf:RDF>
      <cc:Work
         rdf:about="">
        <dc:format>image/svg+xml</dc:format>
        <dc:type
           rdf:resource="http://purl.org/dc/dcmitype/StillImage" />
        <dc:title></dc:title>
      </cc:Work>
    </rdf:RDF>
  </metadata>
  <g
     inkscape:label="Layer 1"
     inkscape:groupmode="layer"
     id="layer1"
     transform="translate(-38.842318,-83.543224)">
    <path
       style="fill:#2f80b7;fill-opacity:1;stroke-width:0.08466667"
       d="m 98.908046,210.44429 c -27.66581,-1.49327 -51.25402,-20.86561 -58.081475,-47.70067 -2.64567,-10.39872 -2.64567,-21.01262 0,-31.41134 5.718925,-22.47805 23.326755,-40.085877 45.804805,-45.804804 10.39872,-2.64567 21.012624,-2.64567 31.411334,0 22.47806,5.718927 40.08589,23.326754 45.80481,45.804804 2.64567,10.39872 2.64567,21.01262 0,31.41134 -4.97399,19.55013 -19.00667,35.60025 -37.7454,43.17198 -8.53707,3.44955 -17.99775,5.02507 -27.194074,4.52869 z m -6.81374,-59.89267 7.941144,-18.96534 -3.225454,-0.0222 c -1.77399,-0.0122 -3.25135,0.007 -3.28301,0.0423 -0.0317,0.0355 -3.53579,8.46557 -7.78696,18.73352 -4.25117,10.26795 -7.78116,18.79328 -7.84442,18.94518 l -0.11502,0.27619 3.1863,-0.0222 3.18629,-0.0222 z m -23.70677,13.85519 c 4.49603,-0.79293 7.66513,-3.45888 8.51911,-7.16653 0.23255,-1.00964 0.21524,-2.96189 -0.0351,-3.96022 -0.69811,-2.78386 -2.69514,-4.95347 -5.63299,-6.11978 l -0.57616,-0.22874 0.61849,-0.35255 c 1.15589,-0.65888 1.71776,-1.08745 2.60817,-1.98938 1.63857,-1.65979 2.29848,-3.32002 2.17342,-5.46799 -0.2015,-3.46082 -2.55566,-6.22933 -6.33629,-7.45153 -1.19333,-0.38577 -2.14394,-0.54694 -3.58413,-0.60766 -4.16423,-0.17554 -7.79721,1.3964 -9.68518,4.19067 -0.8278,1.22518 -1.25536,2.50316 -1.33674,3.99552 -0.16543,3.03378 1.37741,5.62881 4.40971,7.41708 l 0.73267,0.43208 -0.40457,0.15193 c -1.41776,0.53243 -2.70673,1.37516 -3.68668,2.41035 -1.61723,1.7084 -2.36731,3.79716 -2.23564,6.22556 0.25144,4.63714 3.98793,7.97569 9.70876,8.67479 1.03935,0.12701 3.62727,0.0432 4.74316,-0.1536 z m -4.13941,-4.96867 c -1.60457,-0.34816 -2.75831,-1.35056 -3.29936,-2.86655 -0.18621,-0.52173 -0.21532,-0.74696 -0.22,-1.70197 -0.004,-0.86397 0.0287,-1.20081 0.15313,-1.56634 0.57727,-1.69583 1.7998,-2.84348 3.42907,-3.21903 0.65106,-0.15007 1.92813,-0.12812 2.52178,0.0434 1.29798,0.37491 2.41459,1.26917 2.95424,2.36597 0.94553,1.92171 0.62947,4.26651 -0.76627,5.68481 -1.12384,1.14201 -3.01488,1.64116 -4.77259,1.25976 z m 0.62841,-15.03018 c -1.51001,-0.25264 -2.86745,-1.65131 -3.1844,-3.28111 -0.21005,-1.08012 0.0687,-2.46812 0.67161,-3.34445 1.36665,-1.98635 4.26316,-2.22835 5.99676,-0.50103 1.60932,1.6035 1.6015,4.34192 -0.0171,5.99632 -0.58556,0.59849 -1.18169,0.92941 -1.97857,1.09832 -0.61826,0.13104 -0.86439,0.13633 -1.48828,0.0319 z m 77.189824,19.98931 c 5.2763,-1.12089 8.40367,-5.56508 9.20695,-13.08365 0.15272,-1.42933 0.20082,-4.62204 0.0938,-6.223 -0.29161,-4.3613 -1.14927,-7.48541 -2.69392,-9.81289 -0.57204,-0.86195 -1.71277,-2.03836 -2.46842,-2.54561 -2.10116,-1.41048 -4.89582,-1.96471 -7.91268,-1.56924 -1.32849,0.17415 -2.28797,0.46493 -3.48667,1.05667 -3.75084,1.85159 -5.9724,5.85154 -6.70184,12.06673 -0.20771,1.76986 -0.20905,6.33314 -0.002,8.07853 0.87897,7.42254 3.9408,11.37345 9.42204,12.15793 1.18432,0.1695 3.44907,0.10695 4.54312,-0.12547 z m -3.19565,-5.36569 c -1.07366,-0.35633 -1.73521,-0.98415 -2.33849,-2.21931 -0.98852,-2.02387 -1.41779,-5.18122 -1.31739,-9.68965 0.11197,-5.02836 0.8141,-7.96704 2.27719,-9.5311 0.70076,-0.74911 1.29786,-1.01004 2.31003,-1.00948 0.90214,5.1e-4 1.33062,0.16114 1.95488,0.73286 1.3408,1.22796 2.05435,3.6244 2.32783,7.81805 0.10764,1.65072 0.0582,5.24806 -0.092,6.68867 -0.50497,4.84475 -1.83841,7.19852 -4.13271,7.29499 -0.38871,0.0163 -0.78704,-0.0179 -0.98936,-0.085 z m -20.447,-11.5703 v -16.67933 h -2.16543 -2.16543 l -0.4804,0.367 c -2.24599,1.71584 -5.20276,3.26854 -8.12157,4.26492 l -1.12183,0.38296 v 2.961 2.961 l 0.35983,-0.0566 c 2.07608,-0.32638 4.38216,-1.22065 5.92667,-2.2983 l 0.65616,-0.45782 v 12.61724 12.61724 h 3.556 3.556 z"
       id="path1421"
       inkscape:connector-curvature="0" />
  </g>
</svg>
