<?xml version="1.0" encoding="UTF-8" standalone="no"?>
<!-- Created with Inkscape (http://www.inkscape.org/) -->

<svg
   xmlns:dc="http://purl.org/dc/elements/1.1/"
   xmlns:cc="http://creativecommons.org/ns#"
   xmlns:rdf="http://www.w3.org/1999/02/22-rdf-syntax-ns#"
   xmlns:svg="http://www.w3.org/2000/svg"
   xmlns="http://www.w3.org/2000/svg"
   xmlns:sodipodi="http://sodipodi.sourceforge.net/DTD/sodipodi-0.dtd"
   xmlns:inkscape="http://www.inkscape.org/namespaces/inkscape"
   width="127.00886mm"
   height="126.88218mm"
   viewBox="0 0 127.00886 126.88218"
   version="1.1"
   id="svg8"
   inkscape:version="0.92.4 (5da689c313, 2019-01-14)"
   sodipodi:docname="bcard.svg">
  <defs
     id="defs2" />
  <sodipodi:namedview
     id="base"
     pagecolor="#ffffff"
     bordercolor="#666666"
     borderopacity="1.0"
     inkscape:pageopacity="0.0"
     inkscape:pageshadow="2"
     inkscape:zoom="0.49497475"
     inkscape:cx="836.64417"
     inkscape:cy="65.09626"
     inkscape:document-units="mm"
     inkscape:current-layer="layer1"
     showgrid="false"
     inkscape:window-width="1920"
     inkscape:window-height="1001"
     inkscape:window-x="-9"
     inkscape:window-y="-9"
     inkscape:window-maximized="1"
     fit-margin-top="0"
     fit-margin-left="0"
     fit-margin-right="0"
     fit-margin-bottom="0" />
  <metadata
     id="metadata5">
    <rdf:RDF>
      <cc:Work
         rdf:about="">
        <dc:format>image/svg+xml</dc:format>
        <dc:type
           rdf:resource="http://purl.org/dc/dcmitype/StillImage" />
        <dc:title></dc:title>
      </cc:Work>
    </rdf:RDF>
  </metadata>
  <g
     inkscape:label="Layer 1"
     inkscape:groupmode="layer"
     id="layer1"
     transform="translate(-40.358609,-59.016495)">
    <path
       style="fill:#2f80b7;stroke-width:0.08466667;fill-opacity:1"
       d="M 100.42448,185.8009 C 52.740417,183.22713 24.894602,130.66296 49.477287,89.628547 c 24.451887,-40.81607 84.300513,-40.81607 108.752403,0 26.13446,43.624713 -7.0949,98.909463 -57.80521,96.172353 z m 28.40567,-17.0105 c 3.9672,-2.27781 7.77538,-3.42228 11.72633,-5.58066 0.18627,-0.12404 0.40076,-0.24933 0.47664,-0.27844 1.49381,-2.70416 0.75978,-5.18881 1.24735,-8.44814 0.0525,-0.34925 0.1117,-0.77661 0.13152,-0.94969 0.0198,-0.17308 0.0581,-0.35043 0.0851,-0.39411 0.0575,-0.093 0.35582,-2.40021 0.55427,-4.28653 0.10706,-1.01755 0.11104,-2.24468 0.009,-2.70933 -0.041,-0.18627 -0.0988,-0.68136 -0.12851,-1.1002 -0.0297,-0.41885 -0.0696,-0.83795 -0.0888,-0.93134 -0.0191,-0.0934 -0.0566,-0.47391 -0.0832,-0.8456 -0.0266,-0.3717 -0.0658,-0.80985 -0.0871,-0.97367 -0.0213,-0.16382 -0.0568,-0.45623 -0.0789,-0.6498 -0.0222,-0.19357 -0.0619,-0.44122 -0.0883,-0.55034 -0.0938,-0.38739 -0.37387,-2.47889 -0.33688,-2.51588 0.0207,-0.0207 0.004,-0.0792 -0.0366,-0.13005 -0.0408,-0.0508 -0.12115,-0.37469 -0.1785,-0.71965 -0.0573,-0.34496 -0.15251,-0.74501 -0.21147,-0.889 -0.0589,-0.14399 -0.13425,-0.60471 -0.1673,-1.02381 -0.0331,-0.4191 -0.11129,-0.8763 -0.17382,-1.016 -0.14825,-0.33116 -0.28766,-0.86699 -0.23839,-0.91625 0.0213,-0.0213 -0.0186,-0.26197 -0.0886,-0.53488 -0.07,-0.27291 -0.14568,-0.65375 -0.1682,-0.84631 -0.0225,-0.19257 -0.0835,-0.50831 -0.1356,-0.70166 -0.0933,-0.34665 -0.10961,-0.50007 -0.21062,-1.98619 -0.0281,-0.41359 -0.0877,-0.82044 -0.13253,-0.90412 -0.0448,-0.0837 -0.0771,-0.35489 -0.0719,-0.6027 0.005,-0.2478 -0.0358,-0.61759 -0.0913,-0.82176 -0.0555,-0.20416 -0.0778,-0.46276 -0.0497,-0.57467 0.0281,-0.11191 0.01,-0.35643 -0.0405,-0.54338 -0.0503,-0.18695 -0.10497,-0.557 -0.12138,-0.82233 -0.0385,-0.62163 -0.19977,-1.74225 -0.31319,-2.17575 -0.0487,-0.18626 -0.10594,-0.49106 -0.12713,-0.67733 -0.0212,-0.18627 -0.0704,-0.41487 -0.10929,-0.508 -0.12542,-0.30017 -0.50321,-1.59472 -0.60536,-2.07433 -0.31933,-1.49934 -1.01737,-3.03799 -1.72314,-3.79827 -1.81246,-1.8939 -4.38515,-2.4199 -6.60813,-3.1952 -1.36127,-0.43692 -2.49662,-0.90501 -3.81,-1.14888 -1.10317,-0.31065 -2.28906,-0.46053 -3.38667,-0.86509 -1.54851,-0.6099 -2.84675,-1.03561 -4.34143,-1.66831 -0.19915,-0.0889 -0.4087,-0.16142 -0.46567,-0.16122 -0.10786,4.3e-4 -0.51224,1.54991 -2.30695,8.83995 -0.53782,2.18459 -0.94787,3.9974 -0.91123,4.02847 3.85798,2.94667 5.15472,3.22654 9.46518,4.35498 1.54562,0.41061 3.30133,1.53679 2.96876,1.90428 -0.0759,0.0839 -0.28731,0.21983 -0.4698,0.30211 l -0.33178,0.14962 -0.26812,-0.26813 c -0.4076,-0.40759 -1.80252,-1.04412 -2.53463,-1.15659 -0.23532,-0.0361 -1.64562,-0.36713 -2.32833,-0.54644 -3.5864,-0.61813 -6.43121,-3.90039 -9.26059,-4.82297 -3.56852,-2.2835 -15.622533,-11.37512 -20.068726,-10.32029 -2.976042,1.2418 -4.320604,4.90769 -3.866275,7.60388 0.06803,0.39915 0.143571,1.03839 0.167861,1.42052 0.05331,0.83869 0.381704,1.56642 1.086598,2.40794 0.247828,0.29587 0.580004,0.70939 0.738168,0.91894 2.677336,3.1288 5.900895,3.94982 8.800276,6.12475 0.4378,0.32947 0.902568,0.65782 1.032808,0.72967 0.22083,0.12183 1.37064,1.23484 3.58539,3.47063 0.50978,0.51462 0.94793,0.93724 0.97366,0.93915 0.0257,0.002 0.21825,0.22895 0.4278,0.50453 0.20955,0.27558 0.40556,0.50262 0.43558,0.50453 0.26313,0.0167 3.08237,3.17351 3.17887,3.55947 0.0291,0.11641 0.12706,0.38311 0.21769,0.59266 0.0906,0.20955 0.23955,0.64686 0.33095,0.97179 0.0914,0.32494 0.19981,0.6313 0.24089,0.6808 0.0928,0.1118 0.25288,0.81203 0.29309,1.28194 0.0166,0.19371 0.068,0.42297 0.11431,0.50949 0.0463,0.0865 0.12911,0.61349 0.18403,1.17106 0.0549,0.55757 0.11496,1.03824 0.13344,1.06814 0.0185,0.0299 0.055,0.20168 0.0811,0.38174 0.0262,0.18006 0.0627,0.37283 0.0813,0.42837 0.0357,0.10698 0.23846,1.72975 0.38404,3.07401 0.21569,1.99169 1.44281,5.69876 2.28416,6.90033 0.0666,0.0951 0.64564,1.14949 0.82043,1.49393 0.0625,0.12315 0.16999,0.27069 0.23888,0.32786 0.0689,0.0572 0.12524,0.14004 0.12524,0.18416 0,0.2487 1.31623,1.8426 2.32878,2.82005 1.04379,1.00761 1.66663,1.55107 2.38762,2.08332 1.3998,1.03337 1.66818,1.23866 1.8876,1.44397 0.21102,0.19743 0.80386,0.62998 1.08375,0.79071 0.0811,0.0466 0.26682,0.17039 0.41274,0.27517 0.14593,0.10477 0.29108,0.1905 0.32257,0.1905 0.0533,0 0.73667,0.42313 1.2341,0.76411 0.11926,0.0817 0.46216,0.27139 0.76201,0.42143 0.29983,0.15004 0.60231,0.32168 0.67216,0.38143 0.30778,0.26323 2.168,1.13238 2.32834,1.08786 0.0931,-0.0259 0.45508,-0.2306 0.80433,-0.45499 z m -22.36641,-16.39539 c 1.18777,-0.82236 1.39761,-1.59283 1.49509,-5.48945 0.0387,-1.54846 0.25621,-2.49188 0.7307,-3.16985 l 0.26304,-0.37584 -0.1367,-0.62212 c -0.0752,-0.34216 -0.22661,-0.80168 -0.3365,-1.02115 -0.10989,-0.21948 -0.26407,-0.59542 -0.34263,-0.83545 -0.18272,-0.55832 -0.76586,-1.23378 -2.77892,-3.21884 l -1.56028,-1.53857 -0.13331,0.22624 c -0.57022,0.98766 -1.0284,1.97911 -1.51623,2.99793 -0.0399,0.0809 -0.073,0.23326 -0.0735,0.33866 -5.9e-4,0.10541 -0.0582,0.4012 -0.1282,0.65732 -0.15555,3.06426 -0.7184,5.06132 0.11809,7.7428 0.0364,0.0489 0.11266,0.26032 0.16953,0.46987 0.12199,0.44952 0.15062,0.51924 0.56477,1.37583 0.37464,0.6993 0.7673,1.22641 1.25832,1.82227 0.0533,0.0339 0.15986,0.16073 0.23681,0.28193 0.4397,0.69252 1.44707,0.85891 2.16994,0.35842 z m -12.974032,-6.31624 c 0.75294,-0.22714 1.38736,-0.80184 1.797788,-1.62855 1.353979,-2.56262 2.504547,-5.65984 4.088436,-7.78399 0.31343,-0.39448 0.921538,-1.23634 0.921538,-1.27577 0,-0.0269 0.0667,-0.12098 0.14817,-0.20903 0.0815,-0.088 0.22336,-0.30552 0.31527,-0.48329 0.0919,-0.17777 0.25384,-0.44111 0.35984,-0.5852 0.27291,-0.37099 0.27879,-0.35962 -0.63278,-1.22269 -1.078858,-1.02146 -2.415598,-2.01657 -3.365493,-2.50537 -0.730468,-0.2727 -5.525166,-3.82754 -5.630333,-1.97148 0,0.044 -0.166218,0.35566 -0.369373,0.69247 -0.203154,0.33682 -0.417993,0.76479 -0.477418,0.95106 -0.764872,1.46818 -1.258315,3.18106 -1.6604,4.572 -0.310093,1.1512 -0.495001,2.44124 -0.639844,3.15383 -0.13604,0.66873 -0.147146,0.82673 -0.15323,2.18017 -0.0059,1.32063 -0.02004,1.20468 0.252268,2.07433 0.109357,0.34925 0.208141,0.6731 0.219521,0.71967 0.287833,1.17782 1.409727,2.50734 2.574479,3.05094 0.116416,0.0543 0.345016,0.16075 0.508,0.23649 0.355971,0.16543 1.250786,0.18311 1.743555,0.0344 z m -12.750222,-9.28809 c 0.02328,-0.0126 0.07045,-0.0185 0.104808,-0.0132 0.200706,0.0311 1.250111,-0.46698 1.711437,-0.81233 0.297537,-0.22273 0.625556,-0.46212 0.728932,-0.53197 0.315091,-0.2129 1.268869,-1.04284 1.506548,-1.31093 0.123168,-0.13892 0.497055,-0.53897 0.83086,-0.889 1.08849,-1.08742 1.725288,-2.58332 2.896392,-3.5574 0.175139,0 1.987968,-2.21821 2.336144,-2.85854 l 0.242258,-0.44554 -0.373856,-0.31362 c -0.894234,-0.75013 -1.734873,-1.63945 -2.162582,-2.2878 -0.253434,-0.38417 -0.48805,-0.69863 -0.521366,-0.69879 -0.03332,-1.7e-4 -1.56148,-0.32287 -3.395919,-0.71714 -1.83444,-0.39426 -3.369382,-0.69581 -3.410983,-0.6701 -0.0416,0.0257 -0.164348,0.2246 -0.272771,0.44197 -1.287801,2.97232 -2.790088,5.6958 -3.551291,8.65023 -0.779952,3.05645 -0.503936,4.63163 0.983244,5.61123 0.575862,0.37931 1.953694,0.61572 2.348144,0.40289 z m 6.39567,-15.9405 c -0.06873,-0.78795 -0.08221,-0.82629 -0.290521,-0.82629 -0.903505,0 -24.02034,-5.66965 -24.385725,-5.98086 -0.03994,-0.034 7.702347,-30.043083 7.785973,-30.178393 0.04798,-0.0776 37.138907,9.43596 39.492937,10.1297 0.4191,0.12351 1.35255,0.3875 2.07433,0.58664 0.72178,0.19914 2.05528,0.57991 2.96333,0.84615 0.90805,0.26623 2.05105,0.59623 2.54,0.73333 1.09243,0.3063 1.60867,0.49581 1.60867,0.59053 0,0.0396 -0.34472,1.51085 -0.76604,3.269333 -0.42133,1.75848 -0.91406,3.86399 -1.09496,4.6789 -0.58568,2.6384 -1.27383,5.45637 -2.16059,8.84767 -0.82566,3.15761 -0.97415,3.68915 -1.4191,5.08 -0.43917,1.37276 -0.45689,1.48523 -0.30856,1.95848 0.0763,0.24343 0.90898,0.87785 1.15218,0.87785 0.082,0 0.16987,-0.34897 0.95952,-3.81 0.28155,-1.23401 0.67955,-2.92946 0.88444,-3.76766 0.2049,-0.8382 0.62777,-2.5908 0.93971,-3.89467 1.22102,-4.08531 1.97818,-8.08 2.9998,-12.399843 0.23225,-0.97739 0.42227,-1.81186 0.42227,-1.85437 0,-0.11943 -0.29273,-0.20875 -4.99534,-1.52436 -0.81491,-0.22798 -1.80551,-0.5122 -2.20133,-0.6316 -2.04251,-0.61613 -43.96467,-11.41494 -44.029229,-11.34158 -0.07511,0.0854 -8.496515,32.700923 -8.454026,32.741903 0.06252,0.0603 20.366145,5.28226 21.410591,5.50666 1.342914,0.28852 2.226431,0.48674 3.556,0.79779 1.508752,0.35298 1.38792,0.39296 1.31567,-0.43531 z m 3.554658,-10.85101 c 0.0662,-0.15842 0.143946,-0.43558 0.17278,-0.6159 l 0.05243,-0.32785 -9.7656,-2.52 c -11.389535,-2.93905 -10.153382,-2.75255 -10.442698,-1.57548 l -0.05368,0.21838 2.228052,0.57717 c 20.090427,5.2044 17.650257,4.62292 17.808712,4.24368 z m 7.699388,-2.77531 c 0.0717,-0.24129 0.13028,-0.52017 0.13028,-0.61975 0,-0.16059 -23.647277,-6.41257 -24.189927,-6.39545 -0.189608,0.006 -0.765899,1.18856 -0.579208,1.18856 0.09885,0 24.047902,6.19661 24.08475,6.23172 0.189535,0.1806 0.433045,0.003 0.554105,-0.40508 z m 3.806358,-2.71969 c 0.35978,-0.4717 0.5024,-0.8855 0.32332,-0.93811 -0.0809,-0.0238 -6.601168,-1.7095 -14.489522,-3.746083 l -14.342461,-3.70288 -0.188619,0.23655 c -0.207056,0.25967 -0.435486,0.86644 -0.356083,0.94584 0.04082,0.0408 28.584345,7.457293 28.780815,7.478123 0.0326,0.003 0.1552,-0.1196 0.27255,-0.27344 z m 6.49182,-2.53545 c 0.25528,-0.34934 0.44786,-0.73663 0.39338,-0.79111 -0.043,-0.043 -32.806531,-8.501063 -32.930008,-8.501063 -0.203807,0 -0.725706,0.98476 -0.592498,1.11797 0.0701,0.0701 32.469676,8.501473 32.760866,8.525393 0.0579,0.005 0.22363,-0.15328 0.36826,-0.35119 z"
       id="path857"
       inkscape:connector-curvature="0"
       sodipodi:nodetypes="sssscccccccccccsccsccccccsccccccscccccccccccccccccccccccccccccccscccccccccccccccscccccscccccccccccccccccccccccccccccscccccccccccccccccccccccccccccccccccccsccssccscccccsccccsscccccccccsccccccscsccccsccccccssccc" />
  </g>
</svg>
