<?xml version="1.0" encoding="UTF-8" standalone="no"?>
<!-- Created with Inkscape (http://www.inkscape.org/) -->

<svg
   xmlns:dc="http://purl.org/dc/elements/1.1/"
   xmlns:cc="http://creativecommons.org/ns#"
   xmlns:rdf="http://www.w3.org/1999/02/22-rdf-syntax-ns#"
   xmlns:svg="http://www.w3.org/2000/svg"
   xmlns="http://www.w3.org/2000/svg"
   xmlns:sodipodi="http://sodipodi.sourceforge.net/DTD/sodipodi-0.dtd"
   xmlns:inkscape="http://www.inkscape.org/namespaces/inkscape"
   width="126.98945mm"
   height="126.9906mm"
   viewBox="0 0 126.98945 126.9906"
   version="1.1"
   id="svg1429"
   inkscape:version="0.92.4 (5da689c313, 2019-01-14)"
   sodipodi:docname="phonebook.svg">
  <defs
     id="defs1423" />
  <sodipodi:namedview
     id="base"
     pagecolor="#ffffff"
     bordercolor="#666666"
     borderopacity="1.0"
     inkscape:pageopacity="0.0"
     inkscape:pageshadow="2"
     inkscape:zoom="0.7"
     inkscape:cx="1.5341251"
     inkscape:cy="104.6986"
     inkscape:document-units="mm"
     inkscape:current-layer="layer1"
     showgrid="false"
     fit-margin-top="0"
     fit-margin-left="0"
     fit-margin-right="0"
     fit-margin-bottom="0"
     inkscape:window-width="1920"
     inkscape:window-height="1001"
     inkscape:window-x="2391"
     inkscape:window-y="484"
     inkscape:window-maximized="1" />
  <metadata
     id="metadata1426">
    <rdf:RDF>
      <cc:Work
         rdf:about="">
        <dc:format>image/svg+xml</dc:format>
        <dc:type
           rdf:resource="http://purl.org/dc/dcmitype/StillImage" />
        <dc:title></dc:title>
      </cc:Work>
    </rdf:RDF>
  </metadata>
  <g
     inkscape:label="Layer 1"
     inkscape:groupmode="layer"
     id="layer1"
     transform="translate(-52.165991,-70.21956)">
    <path
       style="fill:#2f80b7;fill-opacity:1;stroke-width:0.08466667"
       d="M 112.23172,197.12063 C 84.5659,195.62735 60.977695,176.25502 54.150243,149.41995 c -2.64567,-10.39871 -2.64567,-21.01261 0,-31.41133 5.718927,-22.478049 23.326758,-40.08588 45.804807,-45.804807 10.39872,-2.64567 21.01262,-2.64567 31.41133,0 22.47806,5.718927 40.08589,23.326758 45.80481,45.804807 2.64567,10.39872 2.64567,21.01261 0,31.41133 -4.97399,19.55014 -19.00667,35.60026 -37.7454,43.17198 -8.53707,3.44956 -17.99775,5.02507 -27.19407,4.5287 z m 39.15833,-59.62538 c 0,-23.15961 0.0246,-42.565631 0.0546,-43.124497 l 0.0546,-1.016119 -0.80255,-0.04788 c -0.96294,-0.05745 -2.08051,-0.402118 -3.03205,-0.935112 -0.82372,-0.461395 -2.04757,-1.660962 -2.52737,-2.477221 -0.42311,-0.719807 -0.8593,-1.878988 -0.8593,-2.283571 v -0.293895 h -31.75 -31.75 l -0.02117,41.380835 c -0.01164,22.75945 -0.01953,41.93328 -0.01753,42.6085 0.0043,1.45404 0.169936,2.20537 0.762465,3.45876 0.614977,1.30087 1.460644,2.34756 2.553513,3.1605 0.269712,0.20063 0.509432,0.38529 0.532712,0.41036 0.0944,0.10172 0.90591,0.58641 1.143,0.68272 0.1397,0.0567 0.635,0.20793 1.10067,0.33598 l 0.84667,0.2328 31.85583,0.008 31.85583,0.008 v -42.10812 z m -62.94702,40.73933 c -1.59778,-0.18209 -3.06626,-0.89477 -4.24455,-2.05996 -1.081964,-1.06994 -1.798761,-2.38334 -2.047448,-3.75159 l -0.07986,-0.43941 h 31.103438 31.10344 l 8.5e-4,-40.40717 8.5e-4,-40.407163 0.3556,0.423333 c 0.84978,1.011625 1.76689,1.719033 2.95788,2.281554 0.76734,0.362425 1.93201,0.724113 2.3317,0.724113 h 0.19572 v 41.867663 41.86767 l -30.50117,-0.0111 c -17.6446,-0.006 -30.78554,-0.0435 -31.17585,-0.088 z M 82.04805,129.65029 V 88.586954 h 30.48 30.48 v 41.063336 41.06333 h -30.48 -30.48 z m 43.50002,29.13234 c 0.84666,-0.23263 3.65668,-2.48248 4.04962,-3.24234 0.32977,-0.63771 0.18232,-1.96676 -0.31621,-2.8501 -0.14159,-0.25088 -0.5818,-0.84167 -0.97825,-1.31286 -1.21479,-1.4438 -2.85433,-3.73143 -4.04885,-5.64928 -1.09635,-1.76025 -1.61381,-2.48551 -2.16264,-3.03108 -0.95019,-0.94455 -1.83705,-1.24294 -2.60823,-0.87755 -0.17002,0.0805 -0.74031,0.56633 -1.26731,1.0795 -0.527,0.51317 -1.07945,0.98576 -1.22767,1.05021 -0.14821,0.0645 -0.47903,0.11365 -0.73515,0.10934 -0.86224,-0.0145 -1.42283,-0.33645 -2.41987,-1.38975 -0.88561,-0.93558 -1.69556,-2.17318 -2.39712,-3.66277 -0.1316,-0.2794 -0.37436,-0.79375 -0.53948,-1.143 -0.38915,-0.8231 -1.17,-3.02524 -1.50108,-4.23333 -0.0574,-0.20955 -0.1353,-0.4572 -0.17305,-0.55033 -0.0378,-0.0931 -0.0859,-0.26459 -0.107,-0.381 -0.0211,-0.11642 -0.15421,-0.72602 -0.29579,-1.35467 -0.51142,-2.27068 -0.72798,-4.189 -0.70253,-6.223 0.0133,-1.06529 0.1218,-2.19293 0.27285,-2.83633 0.0915,-0.38967 0.10929,-0.44151 0.37828,-1.10067 0.46974,-1.15114 1.34248,-1.86005 2.29212,-1.86184 0.49011,-9.2e-4 2.49237,0.37607 2.76105,0.51986 0.43907,0.23499 1.581,-0.0828 2.11701,-0.58921 0.43292,-0.40898 1.21628,-1.66048 1.78722,-2.85526 0.3108,-0.6504 0.60248,-1.24962 0.64818,-1.3316 0.16268,-0.29183 1.17353,-2.91575 1.5082,-3.91495 0.38415,-1.14691 0.73612,-2.49565 0.82114,-3.14661 0.0764,-0.58532 -0.0884,-1.4779 -0.38958,-2.10951 -0.36783,-0.77138 -0.56783,-0.95806 -1.83932,-1.71686 -0.24517,-0.14631 -0.48456,-0.26602 -0.53198,-0.26602 -0.0474,0 -0.26592,-0.0884 -0.48556,-0.1964 -1.02146,-0.50234 -3.65767,-0.9707 -4.2292,-0.75138 -0.12879,0.0494 -0.7866,0.28646 -1.46182,0.52676 -3.38844,1.20588 -6.07607,3.03379 -7.40547,5.03662 -0.16681,0.25132 -0.34047,0.47992 -0.38591,0.508 -0.0454,0.0281 -0.0826,0.10862 -0.0826,0.17897 0,0.0704 -0.10564,0.28718 -0.23475,0.48184 -0.19868,0.29956 -0.62064,1.16555 -0.87377,1.79326 -0.32295,0.80083 -0.72208,2.71138 -0.91976,4.40266 -0.36753,3.14453 -0.33034,6.28537 0.1203,10.16 0.0271,0.23284 0.084,0.63289 0.12651,0.889 0.0425,0.25612 0.10121,0.67522 0.13047,0.93134 0.088,0.76996 0.21628,1.51329 0.51886,3.00566 0.0755,0.37254 0.16751,0.85289 0.2044,1.06747 0.0369,0.21457 0.11133,0.55747 0.16544,0.762 0.15488,0.58546 0.23236,0.90702 0.42625,1.76887 0.31054,1.38039 1.11536,4.2093 1.5416,5.41866 0.1395,0.39582 0.27277,0.80596 0.29615,0.91142 0.0234,0.10546 0.0761,0.21249 0.11707,0.23783 0.041,0.0253 0.0746,0.12055 0.0746,0.21157 0,0.091 0.0354,0.23164 0.0786,0.3125 0.0432,0.0809 0.21767,0.52802 0.38762,0.99368 0.32148,0.88092 0.87031,2.26392 1.15916,2.921 0.0921,0.20955 0.28486,0.6477 0.42832,0.97367 1.61839,3.67727 2.82376,5.72389 4.62957,7.86062 1.09409,1.29459 2.95546,2.72456 4.2387,3.25634 0.11642,0.0482 0.43064,0.18711 0.69827,0.30858 1.38057,0.62664 4.01522,1.04119 6.45607,1.01585 0.85255,-0.009 1.68364,-0.0597 1.88635,-0.11538 z"
       id="path1985"
       inkscape:connector-curvature="0" />
  </g>
</svg>
